# xmcd CD database file
# Copyright (C) 1995-1998 Ti Kan
#
# Track frame offsets:
#	150
#	18811
#	39221
#	59308
#	72845
#	85360
#	101250
#	119014
#	134709
#	150918
#	164141
#	184012
#	204006
#	217984
#	234234
#	250144
#	271437
#	287531
#	309400
#	329191
#
# Disc length: 4480 seconds
#
# Revision: 1
# Processed by: cddbd v1.4b42PL1 Copyright (c) Steve Scherf et al.
# Submitted via: CDex 1.30
#
DISCID=16117e14
DTITLE=Shania Twain - 20 Greatest Hits
DYEAR=2001
DGENRE=Country
TTITLE0=Any Man of Mine
TTITLE1=(If You're not in it for Love) I'm Outta Here!
TTITLE2=You Win My Love
TTITLE3=What Made You Say Thet
TTITLE4=God Aint't Gonna Getcha for That
TTITLE5=Crime of the Century
TTITLE6=Man! I Feel Like a Woman
TTITLE7=I'm Holdin' On to Love (To Save my Life)
TTITLE8=Love Gets Me Every Time
TTITLE9=Come On Over
TTITLE10=Rock This Country
TTITLE11=Whose Bed Haver Your Boots Been Under?
TTITLE12=No One Needs To Know
TTITLE13=Don't Be Stupid (You Know I Love You)
TTITLE14=You've Got a Way
TTITLE15=From This Moment On (Guest vocal: Bryan White)
TTITLE16=You're Still The One
TTITLE17=The Woman Im Me (Needs the Man In You)
TTITLE18=When He Leaves You
TTITLE19=God Bless The Child
EXTD=YEAR: 2001  ID3G:   2
EXTT0=
EXTT1=
EXTT2=
EXTT3=
EXTT4=
EXTT5=
EXTT6=
EXTT7=
EXTT8=
EXTT9=
EXTT10=
EXTT11=
EXTT12=
EXTT13=
EXTT14=
EXTT15=
EXTT16=
EXTT17=
EXTT18=
EXTT19=
PLAYORDER=
